<?xml version="1.0" encoding="UTF-8"?>
<svg version="1.1" xmlns="http://www.w3.org/2000/svg" width="500" height="500">
<path d="M0 0 C1.10980728 -0.00101212 1.10980728 -0.00101212 2.24203491 -0.00204468 C13.83907398 0.01475011 24.91720711 0.69073848 36.25 3.25 C37.04583496 3.41628906 37.84166992 3.58257812 38.66162109 3.75390625 C63.83077219 9.04957802 88.40351588 19.26076266 103.19677734 41.38378906 C116.23641407 61.56851264 119.72092383 86.42394885 115.0222168 109.9465332 C114.21279791 113.41995815 113.25228452 116.82670427 112.25 120.25 C111.88648438 121.84714844 111.88648438 121.84714844 111.515625 123.4765625 C108.58846436 134.31900447 98.78499466 138.86408911 89.6887207 144.1315918 C55.90585494 163.19928716 15.26515086 171.4317767 -22.89892578 161.70214844 C-24.52257476 161.24080593 -26.13756872 160.74913754 -27.75 160.25 C-25.442707 157.69629707 -23.08309434 156.24673197 -20.0625 154.625 C-9.55819422 148.41721521 -1.34426802 137.10956084 1.77734375 125.27734375 C3.79473419 112.35604138 3.05096233 100.09675052 -4.375 89 C-10.66515395 81.26438138 -19.21896473 76.71615077 -28.8125 74.5625 C-34.60562333 75.91833738 -37.38310575 81.20562759 -40.5390625 85.92578125 C-46.19638604 95.13450834 -50.4066494 104.96323333 -53.140625 115.40625 C-53.379021 116.29183594 -53.61741699 117.17742187 -53.86303711 118.08984375 C-54.31634876 119.81385204 -54.74097894 121.54576013 -55.13110352 123.28515625 C-56.66448731 129.13019247 -59.11999288 132.28864976 -63.96382141 135.8692627 C-69.34099349 138.53401007 -74.74152029 137.53722762 -80.54296875 136.875 C-81.84776688 136.75648682 -83.152565 136.63797363 -84.49690247 136.51586914 C-87.94594923 136.20187286 -91.38858497 135.84150642 -94.83197021 135.47113037 C-98.32987435 135.1037678 -101.83202234 134.78295695 -105.33398438 134.45703125 C-125.04395183 132.59387116 -125.04395183 132.59387116 -132.75 131.25 C-132.10049215 96.64894539 -117.63901399 61.88769781 -93.875 36.875 C-68.63311395 13.02439901 -34.37767341 0.02807584 0 0 Z " fill="#5C17EA" transform="translate(222.75,65.75)"/>
<path d="M0 0 C0.73822998 0.19634033 1.47645996 0.39268066 2.23706055 0.5949707 C27.36440254 7.22301076 50.94130699 10.48525336 77 11 C76.96519531 12.30710937 76.93039063 13.61421875 76.89453125 14.9609375 C76.52803361 34.49765575 79.73978894 50.7823517 86.4050293 69.13085938 C87 71 87 71 87 73 C85.96939453 73.50660156 85.96939453 73.50660156 84.91796875 74.0234375 C84.01691406 74.46945312 83.11585938 74.91546875 82.1875 75.375 C81.29417969 75.81585938 80.40085937 76.25671875 79.48046875 76.7109375 C76.85443619 78.01866905 76.85443619 78.01866905 74 80 C71.24751282 80.24050903 71.24751282 80.24050903 67.8762207 80.22705078 C66.61513992 80.22689972 65.35405914 80.22674866 64.05476379 80.22659302 C62.67843468 80.21637976 61.30210717 80.20594777 59.92578125 80.1953125 C58.51759542 80.19158172 57.109407 80.18873506 55.70121765 80.18673706 C51.9972719 80.17910564 48.29348332 80.15946148 44.58959961 80.1373291 C40.80910366 80.11686003 37.02858228 80.10773308 33.24804688 80.09765625 C25.83195964 80.07621504 18.41600186 80.04208513 11 80 C8.41220164 73.34763182 6.78588735 66.96176901 5.5 59.9375 C5.28641846 58.77516846 5.07283691 57.61283691 4.8527832 56.4152832 C3.23693086 47.20461941 2.09163223 37.98972819 1.1875 28.6875 C1.06375 27.43251709 0.94 26.17753418 0.8125 24.88452148 C0.06219324 16.55666815 -0.1370459 8.35819696 0 0 Z " fill="#5C18EA" transform="translate(164,284)"/>
<path d="M0 0 C6.77754616 5.6313435 11.7098341 12.27170043 13.34375 21.08203125 C14.26753257 33.81811547 12.60264932 43.64757369 4.515625 53.81640625 C-1.79844675 60.40302786 -8.31840302 64.87330246 -16.46875 68.95703125 C-17.40912109 69.44171875 -18.34949219 69.92640625 -19.31835938 70.42578125 C-28.61755283 75.18505396 -38.16549449 76.97529913 -48.5 74.36328125 C-56.3055586 71.04859198 -62.07042536 65.76230815 -65.65625 58.08203125 C-70.02489716 45.57022578 -69.80187991 34.32193198 -64.65625 22.08203125 C-58.8055025 11.35060837 -50.43230132 4.47467928 -39.453125 -0.59375 C-36.63401277 -1.86620647 -36.63401277 -1.86620647 -34.046875 -3.5234375 C-23.83771031 -9.47878357 -9.09340581 -6.5659739 0 0 Z " fill="#5C17E9" transform="translate(247.65625,379.91796875)"/>
<path d="M0 0 C7.01829615 1.22575033 12.28855844 3.40640188 18.375 7.0625 C19.20717041 7.55564697 20.03934082 8.04879395 20.89672852 8.55688477 C27.43552682 12.50641324 33.39958439 16.78552421 39 22 C39.7437085 22.69029297 39.7437085 22.69029297 40.50244141 23.39453125 C47.23516999 29.70477331 53.09166983 36.13303747 58 44 C58.4434375 44.67160156 58.886875 45.34320313 59.34375 46.03515625 C62.05001908 50.34141549 62.05001908 50.34141549 61.859375 52.8515625 C60.65330306 55.86674234 58.82005433 58.00496763 56.75 60.5 C55.59757812 61.90765625 55.59757812 61.90765625 54.421875 63.34375 C52.11009232 65.87925359 49.73785807 67.94175209 47 70 C30.73519191 63.20492462 17.6915252 55.24019073 5 43 C4.26910156 42.33226562 3.53820312 41.66453125 2.78515625 40.9765625 C-3.17868752 35.37881607 -7.5221431 28.79110663 -12 22 C-12.66 21.01 -13.32 20.02 -14 19 C-13.83954558 14.79252843 -10.88781537 12.41497042 -8.125 9.5 C-5.23454886 6.43258246 -2.44707521 3.43562878 0 0 Z M36.625 44.625 C34.80112622 46.94844013 34.80112622 46.94844013 34.4375 50 C34.76082076 53.15790202 34.76082076 53.15790202 37.1875 55.4375 C39.84647339 57.22529278 39.84647339 57.22529278 42.625 56.9375 C45.91347372 55.63941827 47.38327705 54.32154918 48.875 51.125 C49.05565151 48.05392433 47.73080642 46.46307068 46 44 C44.90076459 42.69253291 44.90076459 42.69253291 42.1875 42.6875 C38.96321568 42.74537056 38.96321568 42.74537056 36.625 44.625 Z " fill="#5271FA" transform="translate(315,303)"/>
<path d="M0 0 C0.99 0.495 0.99 0.495 2 1 C0.71416016 1.96099609 0.71416016 1.96099609 -0.59765625 2.94140625 C-34.70786874 28.63759997 -45.85161528 65.33576583 -53 106 C-51.78054687 106.09796875 -50.56109375 106.1959375 -49.3046875 106.296875 C-30.17047291 107.87936281 -11.0885888 109.94983811 8 112 C5.78071806 114.90802461 4.07030857 116.95312762 1 119 C-1.59822083 119.05741882 -1.59822083 119.05741882 -4.75317383 118.78393555 C-5.9348262 118.68690842 -7.11647858 118.58988129 -8.3339386 118.48991394 C-9.61205917 118.37335953 -10.89017975 118.25680511 -12.20703125 118.13671875 C-13.52031906 118.0252803 -14.83360687 117.91384186 -16.18669128 117.79902649 C-18.968923 117.56259253 -21.7503957 117.31898698 -24.53149414 117.06958008 C-28.08475491 116.75093564 -31.63888527 116.44390549 -35.19356251 116.14151287 C-38.59420382 115.85190917 -41.99440524 115.55730333 -45.39453125 115.26171875 C-46.66657913 115.15123703 -47.93862701 115.04075531 -49.2492218 114.92692566 C-50.44033066 114.82044205 -51.63143951 114.71395844 -52.85864258 114.60424805 C-53.90216385 114.51161179 -54.94568512 114.41897552 -56.02082825 114.3235321 C-59.03980418 113.99567735 -62.01014048 113.52826031 -65 113 C-64.35049215 78.39894539 -49.88901399 43.63769781 -26.125 18.625 C-18.46869707 11.30265535 -9.42309747 4.8553689 0 0 Z " fill="#0548AC" transform="translate(155,84)"/>
<path d="M0 0 C4.29 1.32 8.58 2.64 13 4 C13.07476562 5.24265625 13.14953125 6.4853125 13.2265625 7.765625 C14.77793807 30.08351161 19.00302174 52.01661955 23 74 C42.47 74 61.94 74 82 74 C78.50739157 77.49260843 75.99536268 79.75948713 71.00700378 80.36076355 C69.89891861 80.35410172 68.79083344 80.34743988 67.64916992 80.34057617 C65.75777534 80.34023628 65.75777534 80.34023628 63.82817078 80.33988953 C62.46226644 80.32457202 61.09636578 80.30892407 59.73046875 80.29296875 C58.32514398 80.28736912 56.91981333 80.28310075 55.51448059 80.28010559 C51.82691095 80.26868555 48.13969931 80.23924342 44.45227051 80.20599365 C40.68502647 80.17523111 36.91772423 80.16158709 33.15039062 80.14648438 C25.76676439 80.11437048 18.38343248 80.06320917 11 80 C8.41220164 73.34763182 6.78588735 66.96176901 5.5 59.9375 C5.28641846 58.77516846 5.07283691 57.61283691 4.8527832 56.4152832 C3.23693086 47.20461941 2.09163223 37.98972819 1.1875 28.6875 C1.06375 27.43251709 0.94 26.17753418 0.8125 24.88452148 C0.06087251 16.542009 -0.10219343 8.37448265 0 0 Z " fill="#0449AA" transform="translate(164,284)"/>
<path d="M0 0 C12.29241313 5.7611059 17.63246032 13.7580109 22.8671875 25.8984375 C26.55757759 36.94827603 23.48100545 49.55624253 18.51171875 59.65234375 C12.66916615 69.91205408 4.52462934 78.56971658 -6.1328125 83.8984375 C-6.7928125 83.5684375 -7.4528125 83.2384375 -8.1328125 82.8984375 C-7.55273438 82.29257813 -6.97265625 81.68671875 -6.375 81.0625 C5.57066509 68.24949289 10.77091537 56.72992015 10.21484375 39.25390625 C9.67508572 30.28308909 6.20408013 22.30303197 -0.1328125 15.8984375 C-7.05171645 10.12881458 -14.15720293 6.3008765 -23.1328125 4.8984375 C-17.10159473 -2.13798324 -8.37165381 -2.94364884 0 0 Z " fill="#0548AA" transform="translate(215.1328125,135.1015625)"/>
<path d="M0 0 C-1.546875 1.1446875 -1.546875 1.1446875 -3.125 2.3125 C-10.49072952 8.61744494 -14.55181102 18.28995593 -15.30078125 27.83203125 C-15.33253538 38.61785117 -14.440531 47.11650896 -8 56 C-8 56.66 -8 57.32 -8 58 C-7.484375 58.2475 -6.96875 58.495 -6.4375 58.75 C-4.47844157 59.75464535 -2.57224641 60.8620399 -0.6875 62 C6.72430611 66.19064143 13.67550915 66.24604406 22 66 C17.01510281 71.35301268 11.3774861 73.18114271 4.10571289 73.47900391 C-4.87285374 73.56852932 -10.89851533 71.83948939 -18.25 66.75 C-26.03912172 58.96087828 -28.95969829 49.48823241 -29.4375 38.5625 C-28.97577427 25.21093092 -23.08476487 14.54311445 -13.5 5.5625 C-4.34194215 -2.17097107 -4.34194215 -2.17097107 0 0 Z " fill="#0549AA" transform="translate(208,382)"/>
<path d="M0 0 C3.06890758 0.53061182 6.12804038 1.10506458 9.1875 1.6875 C10.48397461 1.91083008 10.48397461 1.91083008 11.80664062 2.13867188 C20.03262641 3.74604841 23.30303429 7.76294317 28.0625 14.5 C30.60984586 18.09150546 33.2211376 21.58367028 36 25 C32.35271629 27.27955232 28.29044639 28.58066192 24 28 C21.15435181 26.1029012 19.15381082 23.63298433 17 21 C15.89782471 19.74824377 14.79362509 18.49826733 13.6875 17.25 C13.12289063 16.59257812 12.55828125 15.93515625 11.9765625 15.2578125 C8.71720097 11.53466831 5.31983364 7.93538086 1.94140625 4.3203125 C0 2 0 2 0 0 Z " fill="#5372F5" transform="translate(280,319)"/>
<path d="M0 0 C3.01934499 0.61389172 5.18582382 1.57330849 7.7578125 3.2578125 C8.46172119 3.71478516 9.16562988 4.17175781 9.89086914 4.64257812 C12.90414869 6.64199168 15.91464917 8.64554442 18.92236328 10.65332031 C20.68877027 11.79826754 22.50981074 12.85820821 24.33984375 13.8984375 C26.9680489 15.44444053 29.01594759 16.68289323 31 19 C31.79289218 22.80899184 31.62231165 26.17624062 31 30 C30.34 30.33 29.68 30.66 29 31 C26.69830057 29.81780418 24.51910923 28.59095712 22.3125 27.25 C21.10255487 26.52221345 19.8903118 25.79823334 18.67578125 25.078125 C18.07016357 24.71517334 17.4645459 24.35222168 16.84057617 23.97827148 C14.76072682 22.80491536 14.76072682 22.80491536 11.3203125 21.80078125 C6.55355993 19.21551897 5.48369416 15.84210544 3.5625 10.9375 C3.21251953 10.10927734 2.86253906 9.28105469 2.50195312 8.42773438 C0 2.41031678 0 2.41031678 0 0 Z " fill="#5271F6" transform="translate(312,283)"/>
<path d="M0 0 C6.10225226 0.31293601 10.38080871 3.24860199 15 7 C17.125 9.6875 17.125 9.6875 18 12 C17.67 12.99 17.34 13.98 17 15 C16.21625 14.195625 15.4325 13.39125 14.625 12.5625 C12.28017144 10.01309583 12.28017144 10.01309583 10 9 C10.33 10.98 10.66 12.96 11 15 C10.01 15 9.02 15 8 15 C7.360625 14.34 6.72125 13.68 6.0625 13 C4.00022661 10.53590278 4.00022661 10.53590278 0 11 C0.495 11.86625 0.99 12.7325 1.5 13.625 C3.05368147 17.12078331 3.35064088 19.23061056 3 23 C2.67 23.33 2.34 23.66 2 24 C3.32 25.32 4.64 26.64 6 28 C1.80067214 27.70702364 -0.75697308 26.97577638 -3.6328125 23.80859375 C-6.71198192 19.73529249 -9.35046635 15.35989543 -12 11 C-10.68 10.67 -9.36 10.34 -8 10 C-9.65 8.35 -11.3 6.7 -13 5 C-12.67 4.34 -12.34 3.68 -12 3 C-9.78515625 2.3671875 -9.78515625 2.3671875 -7.0625 1.875 C-6.16660156 1.70742188 -5.27070313 1.53984375 -4.34765625 1.3671875 C-2 1 -2 1 0 1 C0 0.67 0 0.34 0 0 Z " fill="#5172F5" transform="translate(293,287)"/>
<path d="M0 0 C0.33 0 0.66 0 1 0 C1.36352041 4.48341837 1.36352041 4.48341837 -0.1875 6.6875 C-2 8 -2 8 -4.375 8.875 C-7.23211917 9.90715233 -7.23211917 9.90715233 -9.625 12.625 C-10.40875 13.40875 -11.1925 14.1925 -12 15 C-12.99 15 -13.98 15 -15 15 C-15.185625 15.61875 -15.37125 16.2375 -15.5625 16.875 C-17.69938538 20.03387405 -20.41424079 20.08726129 -24 21 C-24.33 21.66 -24.66 22.32 -25 23 C-23.60974609 23.09087891 -23.60974609 23.09087891 -22.19140625 23.18359375 C-20.99386719 23.26738281 -19.79632813 23.35117188 -18.5625 23.4375 C-17.36753906 23.51871094 -16.17257813 23.59992188 -14.94140625 23.68359375 C-12 24 -12 24 -11 25 C-8.46221684 25.11365204 -5.9527749 25.16419075 -3.4140625 25.16796875 C-2.64250824 25.17129715 -1.87095398 25.17462555 -1.07601929 25.17805481 C0.56666466 25.18313267 2.20935899 25.18546287 3.85205078 25.18530273 C6.32993489 25.18746075 8.80735274 25.20552647 11.28515625 25.22460938 C23.76412302 25.28476077 23.76412302 25.28476077 36 23 C36.495 22.505 36.495 22.505 37 22 C39.53966508 21.4553632 42.06987322 20.96001391 44.625 20.5 C45.32496094 20.36980469 46.02492188 20.23960937 46.74609375 20.10546875 C51.15216743 19.29618991 55.56145973 18.60578502 60 18 C38.31532747 32.45644835 1.42855211 29.69474224 -22.80810547 25.44628906 C-25.93701966 24.80921453 -28.95043262 23.94401144 -32 23 C-28.05496787 18.69061777 -22.69784505 16.0665899 -17.3125 13.9375 C-10.52948988 11.18763103 -4.19124566 5.95598067 0 0 Z " fill="#572AC2" transform="translate(227,203)"/>
<path d="M0 0 C0.66 0 1.32 0 2 0 C2.82065069 1.87144695 3.6311584 3.74734336 4.4375 5.625 C4.88996094 6.66914063 5.34242188 7.71328125 5.80859375 8.7890625 C6.96348348 11.901585 7.65667184 14.70211546 8 18 C7.67 18.33 7.34 18.66 7 19 C0.7774513 18.86004648 -5.10489348 17.96503551 -11 16 C-11 11.87286433 -8.7725266 10.2510474 -6.0625 7.4375 C-2.64502345 4.00518676 -2.64502345 4.00518676 0 0 Z " fill="#5171FB" transform="translate(377,358)"/>
<path d="M0 0 C0.33 0 0.66 0 1 0 C1.19068036 4.57632859 0.74914781 8.10223879 -0.49194336 12.54907227 C-1.16271464 15.78495544 -1.35378917 18.98082132 -1.56640625 22.27734375 C-1.64963135 23.53667725 -1.73285645 24.79601074 -1.81860352 26.09350586 C-1.87846436 27.05264893 -1.9383252 28.01179199 -2 29 C-1.01829834 29.0501123 -0.03659668 29.10022461 0.97485352 29.15185547 C4.69345285 29.34331834 8.41158427 29.54288274 12.12963867 29.74462891 C13.72457775 29.83009779 15.31962895 29.91350474 16.91479492 29.99462891 C27.37692195 30.52844452 37.63224167 31.49603506 48 33 C50.99796579 33.35967552 53.9970677 33.68390186 57 34 C57.03738281 33.41992188 57.07476562 32.83984375 57.11328125 32.2421875 C57.53903667 27.18321136 58.37138991 23.45720842 61 19 C62.29065057 22.8719517 61.22324098 25.44232601 60.0625 29.1875 C59.86720703 29.84169922 59.67191406 30.49589844 59.47070312 31.16992188 C58.98817437 32.78227407 58.49509795 34.39146289 58 36 C50.44184596 36.14034196 43.07853324 35.75520554 35.56640625 34.94140625 C34.00586769 34.77849342 34.00586769 34.77849342 32.4138031 34.61228943 C30.23627724 34.38379178 28.05903616 34.15256494 25.88208008 33.91870117 C22.54770326 33.56091226 19.21244988 33.2124118 15.87695312 32.86523438 C13.75254706 32.64116573 11.62819599 32.41657502 9.50390625 32.19140625 C8.50911758 32.08719864 7.51432892 31.98299103 6.48939514 31.87562561 C5.56420578 31.77559738 4.63901642 31.67556915 3.68579102 31.57250977 C2.87513687 31.48590591 2.06448273 31.39930206 1.22926331 31.31007385 C-0.90349365 31.01342331 -2.92372607 30.56459641 -5 30 C-3.87791788 19.83525606 -2.33636384 9.96848573 0 0 Z " fill="#4F32D7" transform="translate(107,160)"/>
<path d="M0 0 C5.61 0.33 11.22 0.66 17 1 C13 6 13 6 10 8 C7.36140442 8.0506897 7.36140442 8.0506897 4.15161133 7.76806641 C2.9505928 7.66781158 1.74957428 7.56755676 0.51216125 7.46426392 C-0.78478165 7.34457245 -2.08172455 7.22488098 -3.41796875 7.1015625 C-4.75881199 6.9856285 -6.09974094 6.87068189 -7.44075012 6.75668335 C-10.96799008 6.45416081 -14.49390568 6.13823452 -18.01971436 5.81951904 C-21.61855993 5.49658859 -25.21849465 5.18632539 -28.81835938 4.875 C-35.88002483 4.26240564 -42.9403692 3.63564685 -50 3 C-50 2.67 -50 2.34 -50 2 C-46.18751574 1.97112764 -42.3750593 1.95324508 -38.5625 1.9375 C-37.47388672 1.92912109 -36.38527344 1.92074219 -35.26367188 1.91210938 C-34.22919922 1.90888672 -33.19472656 1.90566406 -32.12890625 1.90234375 C-31.17056885 1.89710693 -30.21223145 1.89187012 -29.22485352 1.88647461 C-27 2 -27 2 -26 3 C-24.64506343 3.14434799 -23.28339476 3.22690484 -21.921875 3.28125 C-20.67470703 3.33732422 -20.67470703 3.33732422 -19.40234375 3.39453125 C-18.52707031 3.42933594 -17.65179688 3.46414062 -16.75 3.5 C-6.352401 3.92089231 -6.352401 3.92089231 -2 5 C-2 4.34 -2 3.68 -2 3 C-2.66 2.67 -3.32 2.34 -4 2 C-2.68 2 -1.36 2 0 2 C0 1.34 0 0.68 0 0 Z " fill="#0F4AA1" transform="translate(146,195)"/>
<path d="M0 0 C2.11663302 4.08378953 3.60551268 8.29191655 5.125 12.625 C5.40214844 13.40101563 5.67929688 14.17703125 5.96484375 14.9765625 C8 20.75119304 8 20.75119304 8 23 C4.77141906 24.07619365 2.45460721 24.12052496 -0.94018555 24.11352539 C-2.16122482 24.11344986 -3.3822641 24.11337433 -4.64030457 24.11329651 C-5.95912125 24.10813522 -7.27793793 24.10297394 -8.63671875 24.09765625 C-10.00006559 24.0957908 -11.36341311 24.0943675 -12.72676086 24.09336853 C-16.31228491 24.08955332 -19.89776835 24.07973155 -23.48327637 24.06866455 C-27.1431422 24.05842901 -30.8030146 24.05386632 -34.46289062 24.04882812 C-41.64194558 24.03810838 -48.8209671 24.02104393 -56 24 C-56.625 22.125 -56.625 22.125 -57 20 C-56.34 19.34 -55.68 18.68 -55 18 C-54.67 19.32 -54.34 20.64 -54 22 C-34.2 22 -14.4 22 6 22 C3.67748574 17.11504475 3.67748574 17.11504475 1 16 C1.03255208 13.94921875 1.06510417 11.8984375 1.09765625 9.84765625 C1.20561184 7.98267859 1.20561184 7.98267859 0 7 C-0.04092937 4.66702567 -0.04241723 2.33294775 0 0 Z " fill="#332FC9" transform="translate(243,334)"/>
<path d="M0 0 C0.99 0.33 1.98 0.66 3 1 C1.625 2.5 1.625 2.5 0 4 C-0.66 4 -1.32 4 -2 4 C-2.28875 5.0725 -2.5775 6.145 -2.875 7.25 C-3.72820109 10.09400364 -4.5636503 12.43508983 -6 15 C-6.66 15 -7.32 15 -8 15 C-7.979375 15.969375 -7.95875 16.93875 -7.9375 17.9375 C-8 21 -8 21 -9 22 C-9.98762024 33.49525192 -8.38709108 43.82209896 -1 53 C2.68010507 56.48118047 6.35689098 58.16027756 11 60 C11.66 60.33 12.32 60.66 13 61 C14.37548156 61.08308638 15.75485796 61.10736016 17.1328125 61.09765625 C17.93847656 61.09443359 18.74414062 61.09121094 19.57421875 61.08789062 C20.41597656 61.07951172 21.25773437 61.07113281 22.125 61.0625 C23.39923828 61.05573242 23.39923828 61.05573242 24.69921875 61.04882812 C26.79950909 61.03702874 28.8997633 61.01909306 31 61 C27.69597286 64.30402714 23.76852411 63.94876506 19.25 64.25 C10.75068867 64.0877994 2.96405033 61.10483264 -3 55 C-10.92793628 44.4822712 -12.00247923 33.75654817 -11 21 C-9.35099708 13.41083885 -5.55474128 5.55474128 0 0 Z " fill="#4B3ADE" transform="translate(203,385)"/>
<path d="M0 0 C0.93392578 0.16435547 0.93392578 0.16435547 1.88671875 0.33203125 C4.57224863 0.79272885 7.26046688 1.23359789 9.95068359 1.66601562 C11.36083088 1.89583234 12.76997427 2.13186737 14.17822266 2.37304688 C29.79537023 5.02707069 45.16072895 5.60987017 61 6 C61 15.57 61 25.14 61 35 C60.34 35 59.68 35 59 35 C59 26.09 59 17.18 59 8 C54.854375 7.87625 50.70875 7.7525 46.4375 7.625 C37.60337804 7.32657487 28.97225335 6.85111991 20.23828125 5.4609375 C15.74174818 4.82090022 11.2444031 4.66462499 6.70703125 4.5390625 C3.36302721 3.87315693 2.15057947 2.57658925 0 0 Z " fill="#5A30BC" transform="translate(180,289)"/>
<path d="M0 0 C1 2 1 2 0.6875 4.0625 C0 6 0 6 -2 7 C-2 8.65 -2 10.3 -2 12 C-3.98 12.99 -3.98 12.99 -6 14 C-6.33 13.34 -6.66 12.68 -7 12 C-7.268125 12.78375 -7.53625 13.5675 -7.8125 14.375 C-9 17 -9 17 -12 19 C-12.99 19 -13.98 19 -15 19 C-16.49140021 22.62197194 -17.7874262 26.27566618 -19 30 C-19.99 30 -20.98 30 -22 30 C-17.4551564 17.91631631 -8.82771576 9.09321097 0 0 Z " fill="#5320E3" transform="translate(144,94)"/>
<path d="M0 0 C0 0.99 0 1.98 0 3 C-1 4 -2 5 -3 6 C-3.71447643 8.10332891 -3.71447643 8.10332891 -4 10 C-3.34 10.33 -2.68 10.66 -2 11 C-2.99 13.64 -3.98 16.28 -5 19 C-5.66 18.01 -6.32 17.02 -7 16 C-7.99 16.99 -8.98 17.98 -10 19 C-9.67 19.99 -9.34 20.98 -9 22 C-9.66 22.99 -10.32 23.98 -11 25 C-11.66 24.01 -12.32 23.02 -13 22 C-13.99 22.33 -14.98 22.66 -16 23 C-14.44272772 18.3894242 -11.95742724 14.83105524 -9.125 10.9375 C-8.69058594 10.32583984 -8.25617188 9.71417969 -7.80859375 9.08398438 C-5.42519549 5.77370901 -2.9961987 2.79412949 0 0 Z " fill="#0548AB" transform="translate(127,105)"/>
<path d="M0 0 C0.99 0 1.98 0 3 0 C3.33 1.65 3.66 3.3 4 5 C4.99 4.67 5.98 4.34 7 4 C8.65 5.65 10.3 7.3 12 9 C12 8.01 12 7.02 12 6 C11.34 5.34 10.68 4.68 10 4 C10.375 1.875 10.375 1.875 11 0 C14.65587458 3.65587458 14.95969788 8.03276399 15 13 C14.67 13.33 14.34 13.66 14 14 C15.32 15.32 16.64 16.64 18 18 C13.80024859 17.70699409 11.23933178 16.97718674 8.3671875 13.8046875 C0 2.76 0 2.76 0 0 Z " fill="#5670E4" transform="translate(281,297)"/>
<path d="M0 0 C0.33 0 0.66 0 1 0 C0.5459223 8.77883545 -1.09568181 18.89294502 -7.33203125 25.453125 C-9.49341832 27.12777451 -11.63586915 28.62993724 -14 30 C-14.66 29.67 -15.32 29.34 -16 29 C-15.505 27.515 -15.505 27.515 -15 26 C-14.34 26 -13.68 26 -13 26 C-12.566875 25.195625 -12.13375 24.39125 -11.6875 23.5625 C-10 21 -10 21 -7.3125 20.1875 C-6.549375 20.125625 -5.78625 20.06375 -5 20 C-4.06213918 14.94990405 -4.06213918 14.94990405 -5 10 C-5.66 9.34 -6.32 8.68 -7 8 C-4 6 -4 6 -1 6 C-0.67 4.02 -0.34 2.04 0 0 Z " fill="#5724CE" transform="translate(336,174)"/>
<path d="M0 0 C12.1601315 -0.58368631 20.68337491 0.12432989 30.3125 8.125 C34.80396979 12.39685534 38.13923567 17.03427679 40 23 C39.67 23.66 39.34 24.32 39 25 C38.34 24.67 37.68 24.34 37 24 C36.690625 22.865625 36.38125 21.73125 36.0625 20.5625 C35.34378643 16.76783002 35.34378643 16.76783002 32 15 C31.67 14.319375 31.34 13.63875 31 12.9375 C30.10301684 10.64657009 30.10301684 10.64657009 27 10 C27 9.01 27 8.02 27 7 C25.34461042 6.30580437 23.67363977 5.64896236 22 5 C21.37996094 4.74734375 20.75992188 4.4946875 20.12109375 4.234375 C13.51593833 1.75288015 7.01114947 1.31425554 0 1 C0 0.67 0 0.34 0 0 Z " fill="#5C2FC4" transform="translate(220,374)"/>
<path d="M0 0 C3.81474308 1.45284896 4.92804904 3.16131841 6.625 6.8125 C7.23214844 8.09060547 7.23214844 8.09060547 7.8515625 9.39453125 C8.23054687 10.25433594 8.60953125 11.11414063 9 12 C9.37640625 12.73992187 9.7528125 13.47984375 10.140625 14.2421875 C11.39586137 18.27035511 11.21098796 22.12224035 11.125 26.3125 C11.11597656 27.14845703 11.10695312 27.98441406 11.09765625 28.84570312 C11.07420989 30.89725969 11.03834266 32.94866777 11 35 C10.01 35.495 10.01 35.495 9 36 C7.85370555 32.56111664 8.03953033 30.11525889 8.1875 26.5 C8.25998721 16.45534396 4.60971541 8.72553275 0 0 Z " fill="#493CDC" transform="translate(230,146)"/>
<path d="M0 0 C1.46063143 0.78741859 2.91843173 1.5800905 4.375 2.375 C5.59316406 3.03628906 5.59316406 3.03628906 6.8359375 3.7109375 C9 5 9 5 11 7 C11.1953125 9.6015625 11.1953125 9.6015625 11.125 12.625 C11.10695313 13.62789063 11.08890625 14.63078125 11.0703125 15.6640625 C11.04710937 16.43492187 11.02390625 17.20578125 11 18 C10.34 18.33 9.68 18.66 9 19 C6.58663793 17.80219162 4.31129458 16.55896094 2 15.1875 C1.03707031 14.63352539 1.03707031 14.63352539 0.0546875 14.06835938 C-2.55746074 12.54642782 -4.85367121 11.14632879 -7 9 C-4.36 9.33 -1.72 9.66 1 10 C1 10.66 1 11.32 1 12 C1.804375 12.12375 2.60875 12.2475 3.4375 12.375 C4.283125 12.58125 5.12875 12.7875 6 13 C6.33 13.66 6.66 14.32 7 15 C7.66 12.36 8.32 9.72 9 7 C8.443125 6.731875 7.88625 6.46375 7.3125 6.1875 C4.78774666 4.89100504 2.36285516 3.57523677 0 2 C0 1.34 0 0.68 0 0 Z " fill="#5771DD" transform="translate(332,295)"/>
<path d="M0 0 C0 0.66 0 1.32 0 2 C-0.66386719 2.29132813 -1.32773438 2.58265625 -2.01171875 2.8828125 C-7.81498276 5.57688251 -11.21389921 7.87762835 -15 13 C-18.35466156 16.24283951 -21.41824259 16.5594464 -26 17 C-22.5963189 13.39610237 -19.14265703 10.70173284 -15 8 C-14.55011719 7.52175781 -14.10023438 7.04351562 -13.63671875 6.55078125 C-11.58933791 4.61090012 -9.46607408 3.55258125 -6.9375 2.3125 C-6.05964844 1.87550781 -5.18179688 1.43851562 -4.27734375 0.98828125 C-2 0 -2 0 0 0 Z " fill="#5225DE" transform="translate(171,77)"/>
<path d="M0 0 C-1.12073862 0.83905565 -2.24674547 1.67107831 -3.375 2.5 C-4.31472656 3.19609375 -4.31472656 3.19609375 -5.2734375 3.90625 C-7 5 -7 5 -9 5 C-10.56266521 6.099763 -10.56266521 6.099763 -12.125 7.5 C-13.07375 8.325 -14.0225 9.15 -15 10 C-14.67 10.99 -14.34 11.98 -14 13 C-16 15 -16 15 -19 16 C-19 16.66 -19 17.32 -19 18 C-20.875 20.125 -20.875 20.125 -23 22 C-23.66 22 -24.32 22 -25 22 C-22.26098672 13.23515749 -14.89939624 5.35953876 -7.00390625 0.86328125 C-2.45422535 -1.22711268 -2.45422535 -1.22711268 0 0 Z " fill="#0A479A" transform="translate(208,382)"/>
<path d="M0 0 C1.65 0.33 3.3 0.66 5 1 C5.1953125 2.98567708 5.390625 4.97135417 5.5859375 6.95703125 C5.92665391 9.29988142 5.92665391 9.29988142 8 12 C8.33 12.99 8.66 13.98 9 15 C8.01 15.495 8.01 15.495 7 16 C4.75390625 14.046875 4.75390625 14.046875 2.5078125 12.09375 C1.04063579 10.80427542 1.04063579 10.80427542 -1 11 C-1.33 9.68 -1.66 8.36 -2 7 C-1.34 7 -0.68 7 0 7 C0 4.69 0 2.38 0 0 Z " fill="#466CFB" transform="translate(286,291)"/>
<path d="M0 0 C0.33 0 0.66 0 1 0 C1.19047331 4.57135956 0.75197795 8.09309315 -0.48828125 12.53515625 C-1.60878425 17.93238826 -1.70678514 23.5060795 -2 29 C-1.10796875 29.04898438 -0.2159375 29.09796875 0.703125 29.1484375 C1.87359375 29.22320312 3.0440625 29.29796875 4.25 29.375 C5.41015625 29.44460937 6.5703125 29.51421875 7.765625 29.5859375 C10.70694334 29.96248308 12.49949011 30.4774123 15 32 C12.41633755 31.85879984 9.83317115 31.71221667 7.25 31.5625 C6.52039063 31.52318359 5.79078125 31.48386719 5.0390625 31.44335938 C1.5727027 31.23852902 -1.65333026 30.9147998 -5 30 C-3.87791788 19.83525606 -2.33636384 9.96848573 0 0 Z " fill="#4139D7" transform="translate(107,160)"/>
<path d="M0 0 C0.66 0.33 1.32 0.66 2 1 C1.13117188 1.66386719 0.26234375 2.32773438 -0.6328125 3.01171875 C-1.7969257 3.90357967 -2.96098533 4.7955105 -4.125 5.6875 C-4.69476563 6.12255859 -5.26453125 6.55761719 -5.8515625 7.00585938 C-8.72251637 9.20801149 -11.54216255 11.44256437 -14.296875 13.7890625 C-16.83159887 15.8622615 -17.9024695 16.48374492 -21 17 C-22.3479743 17.63654342 -23.68596724 18.29605388 -25 19 C-21.8938513 14.69147116 -18.4941316 11.91759694 -14.1875 8.9375 C-13.59646484 8.51662109 -13.00542969 8.09574219 -12.39648438 7.66210938 C-8.39470848 4.84733789 -4.35635959 2.23444274 0 0 Z " fill="#10429C" transform="translate(155,84)"/>
<path d="M0 0 C0.66 0 1.32 0 2 0 C2.82065069 1.87144695 3.6311584 3.74734336 4.4375 5.625 C4.88996094 6.66914063 5.34242188 7.71328125 5.80859375 8.7890625 C6.96348348 11.901585 7.65667184 14.70211546 8 18 C7.67 18.33 7.34 18.66 7 19 C5.24673544 18.93528218 3.49593546 18.79772624 1.75 18.625 C0.79609375 18.53476562 -0.1578125 18.44453125 -1.140625 18.3515625 C-3.79961116 18.02463797 -6.38213768 17.56370028 -9 17 C-9 16.67 -9 16.34 -9 16 C-4.05 16.33 0.9 16.66 6 17 C5.34 15.246875 4.68 13.49375 4 11.6875 C2.81493079 8.53965992 2 6.37465686 2 3 C1.34 3 0.68 3 0 3 C-0.2475 3.639375 -0.495 4.27875 -0.75 4.9375 C-2 7 -2 7 -4.078125 7.62890625 C-4.71234375 7.75136719 -5.3465625 7.87382812 -6 8 C-5.04956626 6.66102417 -4.08940853 5.32894573 -3.125 4 C-2.59132813 3.2575 -2.05765625 2.515 -1.5078125 1.75 C-0.76144531 0.88375 -0.76144531 0.88375 0 0 Z " fill="#5673E1" transform="translate(377,358)"/>
<path d="M0 0 C1.53059302 0.01006222 3.06119254 0.01918227 4.59179688 0.02734375 C8.2905027 0.04907212 11.98895769 0.08341819 15.6875 0.125 C15.6875 0.455 15.6875 0.785 15.6875 1.125 C14.84977051 1.15005615 14.01204102 1.1751123 13.14892578 1.20092773 C10.04397744 1.29600357 6.93919819 1.39524025 3.83447266 1.49731445 C1.82855193 1.56198251 -0.17752228 1.62183106 -2.18359375 1.68164062 C-4.06884766 1.74448242 -4.06884766 1.74448242 -5.9921875 1.80859375 C-7.15476074 1.84525146 -8.31733398 1.88190918 -9.51513672 1.91967773 C-12.2660501 1.94321659 -12.2660501 1.94321659 -14.3125 3.125 C-16.64497761 3.46426947 -18.97835471 3.79740066 -21.3125 4.125 C-22.3025 4.455 -23.2925 4.785 -24.3125 5.125 C-27.5 4.1875 -27.5 4.1875 -30.3125 3.125 C-30.3125 2.795 -30.3125 2.465 -30.3125 2.125 C-20.11111255 0.14823743 -10.34727847 -0.11993565 0 0 Z " fill="#5725CE" transform="translate(224.3125,65.875)"/>
<path d="M0 0 C1.13643966 3.40931897 0.86747764 4.00335456 -0.4375 7.1875 C-0.72496094 7.90292969 -1.01242188 8.61835938 -1.30859375 9.35546875 C-1.53675781 9.89816406 -1.76492187 10.44085938 -2 11 C-2.66 11 -3.32 11 -4 11 C-4 12.32 -4 13.64 -4 15 C-4.66 15 -5.32 15 -6 15 C-6 16.98 -6 18.96 -6 21 C-6.66 21 -7.32 21 -8 21 C-8.1546875 22.794375 -8.1546875 22.794375 -8.3125 24.625 C-8.78891352 28.5624176 -10.01130716 31.54140375 -12 35 C-13.12365857 31.62902428 -12.90279102 30.97837711 -11.77734375 27.75390625 C-11.3443396 26.50528809 -11.3443396 26.50528809 -10.90258789 25.23144531 C-10.58410889 24.35069336 -10.26562988 23.46994141 -9.9375 22.5625 C-9.61966553 21.66756836 -9.30183105 20.77263672 -8.97436523 19.85058594 C-6.4687396 12.94719183 -3.56716623 6.42873914 0 0 Z " fill="#4735DB" transform="translate(121,124)"/>
<path d="M0 0 C5.875 4.625 5.875 4.625 7 8 C3.04 8.66 -0.92 9.32 -5 10 C-5.99 8.68 -6.98 7.36 -8 6 C-5.03 5.34 -2.06 4.68 1 4 C0.67 2.68 0.34 1.36 0 0 Z " fill="#5674EA" transform="translate(309,337)"/>
<path d="M0 0 C4.56559945 2.0173579 7.79012547 4.14815057 11 8 C11.8125 10.8125 11.8125 10.8125 12 13 C10.50260417 11.73046875 9.00520833 10.4609375 7.5078125 9.19140625 C5.99405921 7.9121848 5.99405921 7.9121848 4 7 C4.33 8.98 4.66 10.96 5 13 C4.01 13 3.02 13 2 13 C2.33 10.69 2.66 8.38 3 6 C2.34 6 1.68 6 1 6 C1.33 5.01 1.66 4.02 2 3 C1.34 2.67 0.68 2.34 0 2 C0 1.34 0 0.68 0 0 Z " fill="#5677DD" transform="translate(299,289)"/>
<path d="M0 0 C5.93409367 4.69782416 10.42451008 9.98649896 15 16 C14.67 16.66 14.34 17.32 14 18 C12.68 17.01 11.36 16.02 10 15 C9.01 15.495 9.01 15.495 8 16 C6.68 14.35 5.36 12.7 4 11 C4.33 10.34 4.66 9.68 5 9 C5 8.34 5 7.68 5 7 C4.175 6.175 3.35 5.35 2.5 4.5 C1.675 3.675 0.85 2.85 0 2 C0 1.34 0 0.68 0 0 Z " fill="#5771E9" transform="translate(357,329)"/>
<path d="M0 0 C4.43458973 1.3937282 6.87378374 3.60582235 10 7 C7.23735711 7.59732819 4.83967231 8 2 8 C1.67 9.32 1.34 10.64 1 12 C-0.26237731 9.47524538 -0.09856404 7.68799534 -0.0625 4.875 C-0.05347656 3.96492188 -0.04445312 3.05484375 -0.03515625 2.1171875 C-0.02355469 1.41851562 -0.01195312 0.71984375 0 0 Z " fill="#5328E3" transform="translate(177,288)"/>
<path d="M0 0 C0.93392578 0.16435547 0.93392578 0.16435547 1.88671875 0.33203125 C7.03917115 1.21592476 12.18583774 2.03580829 17.3671875 2.73046875 C18.30473877 2.85768311 19.24229004 2.98489746 20.20825195 3.1159668 C22.09654792 3.37003313 23.98571763 3.61769563 25.87573242 3.85864258 C26.75334229 3.97747803 27.63095215 4.09631348 28.53515625 4.21875 C29.322854 4.32123047 30.11055176 4.42371094 30.92211914 4.52929688 C33 5 33 5 36 7 C31.32937189 6.71465616 26.6645472 6.37015306 22 6 C21.21947266 5.94086426 20.43894531 5.88172852 19.63476562 5.82080078 C17.21266386 5.62965902 14.79425065 5.41164153 12.375 5.1875 C11.60559082 5.12965332 10.83618164 5.07180664 10.04345703 5.01220703 C6.42004694 4.65235055 4.32466863 4.26687158 1.4765625 1.92578125 C0.98929688 1.29027344 0.50203125 0.65476562 0 0 Z " fill="#5428C1" transform="translate(180,289)"/>
<path d="M0 0 C3.95820859 0.56545837 6.6659053 1.80902348 10 4 C9.67 5.65 9.34 7.3 9 9 C4.05 7.02 4.05 7.02 -1 5 C-0.67 3.35 -0.34 1.7 0 0 Z " fill="#546EF1" transform="translate(292,291)"/>
<path d="M0 0 C0.99 0.33 1.98 0.66 3 1 C1.35 2.98 -0.3 4.96 -2 7 C-1.34 7.33 -0.68 7.66 0 8 C-3.18595135 10.63978826 -6.30970546 13.10498388 -10 15 C-10.66 14.67 -11.32 14.34 -12 14 C-11.38511719 13.32453125 -10.77023438 12.6490625 -10.13671875 11.953125 C-9.32847656 11.06109375 -8.52023438 10.1690625 -7.6875 9.25 C-6.88699219 8.36828125 -6.08648437 7.4865625 -5.26171875 6.578125 C-3.39083089 4.44550672 -1.65915714 2.29812057 0 0 Z " fill="#12439F" transform="translate(219,204)"/>
<path d="M0 0 C0.33 0 0.66 0 1 0 C1.36352041 4.48341837 1.36352041 4.48341837 -0.1875 6.6875 C-2 8 -2 8 -4.375 8.875 C-7.24038707 9.8993054 -7.24038707 9.8993054 -9.5625 12.6875 C-10.366875 13.450625 -11.17125 14.21375 -12 15 C-14.15234375 14.64453125 -14.15234375 14.64453125 -16 14 C-15.22076172 13.41992188 -15.22076172 13.41992188 -14.42578125 12.828125 C-6.50624333 7.14783841 -6.50624333 7.14783841 0 0 Z " fill="#5534E1" transform="translate(227,203)"/>
<path d="M0 0 C0 0.33 0 0.66 0 1 C-3.3 1.33 -6.6 1.66 -10 2 C-10.33 3.65 -10.66 5.3 -11 7 C-13.97 6.67 -16.94 6.34 -20 6 C-13.77207996 -0.22792004 -8.41220639 -0.40414515 0 0 Z " fill="#1043A7" transform="translate(212,134)"/>
<path d="M0 0 C8.25 0 16.5 0 25 0 C22 3 22 3 19 5 C18.01 4.67 17.02 4.34 16 4 C16.66 3.01 17.32 2.02 18 1 C12.06 1 6.12 1 0 1 C0 0.67 0 0.34 0 0 Z " fill="#0D40A7" transform="translate(221,358)"/>
<path d="M0 0 C1.19496094 0.24556641 1.19496094 0.24556641 2.4140625 0.49609375 C6.76795599 1.10791538 10.9863942 1.10799591 15.375 1.0625 C16.62216797 1.05573242 16.62216797 1.05573242 17.89453125 1.04882812 C19.92971897 1.03713164 21.96486923 1.01919935 24 1 C20.65036243 4.34963757 16.64425274 3.9693213 12.0625 4.1875 C8.05767827 4.13358894 4.76002801 3.38123478 1 2 C0.67 1.34 0.34 0.68 0 0 Z " fill="#4738D4" transform="translate(210,445)"/>
<path d="M0 0 C-1.90881434 1.03544174 -3.82739204 2.05290085 -5.75 3.0625 C-6.81734375 3.63097656 -7.8846875 4.19945312 -8.984375 4.78515625 C-12.02593537 6.01044806 -13.04893565 6.25348607 -16 5 C-15.01 5 -14.02 5 -13 5 C-13 4.34 -13 3.68 -13 3 C-8.92005712 -0.77772489 -5.24520218 -1.46687858 0 0 Z " fill="#12449A" transform="translate(230,449)"/>
<path d="M0 0 C-0.5625 1.875 -0.5625 1.875 -2 4 C-4.3140622 4.73075648 -6.64828869 5.40138258 -9 6 C-9.33 6.66 -9.66 7.32 -10 8 C-10.99 7.67 -11.98 7.34 -13 7 C-10.98878175 0.96634524 -5.94803321 -0.56647935 0 0 Z " fill="#4F28D3" transform="translate(212,218)"/>
<path d="M0 0 C6.26418531 1.48362284 10.91513505 5.24162156 16 9 C14.02 9.99 14.02 9.99 12 11 C10.5 9.625 10.5 9.625 9 8 C9 7.34 9 6.68 9 6 C8.01 6 7.02 6 6 6 C6 5.34 6 4.68 6 4 C5.01 4 4.02 4 3 4 C3 3.34 3 2.68 3 2 C2.01 2 1.02 2 0 2 C0 1.34 0 0.68 0 0 Z " fill="#5723CC" transform="translate(294,81)"/>
<path d="M0 0 C3.14619868 6.04617311 5.53165598 12.08847232 5 19 C3 18 3 18 1 16 C0.67819084 13.28371254 0.86705163 10.74759966 1 8 C0.67 7.67 0.34 7.34 0 7 C-0.04092937 4.66702567 -0.04241723 2.33294775 0 0 Z " fill="#5623CC" transform="translate(243,334)"/>
<path d="M0 0 C1.98 0 3.96 0 6 0 C6 0.66 6 1.32 6 2 C4.390625 3.18359375 4.390625 3.18359375 2.25 4.4375 C-0.62727259 6.16182294 -3.36522337 7.91413516 -6 10 C-5.67 8.02 -5.34 6.04 -5 4 C-3.35 3.67 -1.7 3.34 0 3 C0 2.01 0 1.02 0 0 Z " fill="#512CD8" transform="translate(193,134)"/>
<path d="M0 0 C4.27495594 4.42236821 5.51298598 9.19839226 7 15 C5.29159719 13.36587557 4.06546953 12.13093906 3 10 C2.01 10.66 1.02 11.32 0 12 C0.185625 11.13375 0.37125 10.2675 0.5625 9.375 C1.00667933 5.94847372 0.71954492 3.35787629 0 0 Z " fill="#5826CB" transform="translate(328,112)"/>
<path d="M0 0 C0.33 0 0.66 0 1 0 C1.33168041 4.7540859 0.59443287 7.05646203 -2 11 C-2.69579454 13.19130534 -2.69579454 13.19130534 -3 15 C-4.32 15.33 -5.64 15.66 -7 16 C-5.56835889 12.34061828 -4.01065704 8.76011932 -2.375 5.1875 C-1.92898437 4.21167969 -1.48296875 3.23585937 -1.0234375 2.23046875 C-0.51683594 1.12638672 -0.51683594 1.12638672 0 0 Z " fill="#4F3AE1" transform="translate(238,183)"/>
<path d="M0 0 C0.66 0.33 1.32 0.66 2 1 C0.90073597 2.77388086 -0.20460502 4.54399684 -1.3125 6.3125 C-2.23482422 7.79169922 -2.23482422 7.79169922 -3.17578125 9.30078125 C-4.66324661 11.50172035 -6.0403386 13.23328988 -8 15 C-8 13.35 -8 11.7 -8 10 C-7.34 9.67 -6.68 9.34 -6 9 C-5.5359375 7.515 -5.5359375 7.515 -5.0625 6 C-4.711875 5.01 -4.36125 4.02 -4 3 C-3.01 2.67 -2.02 2.34 -1 2 C-0.67 1.34 -0.34 0.68 0 0 Z " fill="#5524C7" transform="translate(185,144)"/>
<path d="M0 0 C4.62 0.99 9.24 1.98 14 3 C14 3.33 14 3.66 14 4 C12.88625 3.938125 11.7725 3.87625 10.625 3.8125 C8.830625 3.9053125 8.830625 3.9053125 7 4 C6.01 5.485 6.01 5.485 5 7 C3.29115995 5.37660195 1.62553283 3.70680947 0 2 C0 1.34 0 0.68 0 0 Z " fill="#5770DE" transform="translate(280,319)"/>
<path d="M0 0 C-2.2863012 1.36402043 -4.57821749 2.71634274 -6.875 4.0625 C-7.85146484 4.64741211 -7.85146484 4.64741211 -8.84765625 5.24414062 C-10.53065725 6.22444533 -12.26296199 7.11898432 -14 8 C-14.66 7.67 -15.32 7.34 -16 7 C-15.67 6.34 -15.34 5.68 -15 5 C-13.68 5 -12.36 5 -11 5 C-11 4.01 -11 3.02 -11 2 C-9.54494642 1.47007308 -8.08581873 0.9513211 -6.625 0.4375 C-5.40683594 0.00244141 -5.40683594 0.00244141 -4.1640625 -0.44140625 C-2 -1 -2 -1 0 0 Z " fill="#5726C8" transform="translate(315,208)"/>
<path d="M0 0 C0 0.66 0 1.32 0 2 C-4.455 2.495 -4.455 2.495 -9 3 C-9 3.66 -9 4.32 -9 5 C-9.66 5 -10.32 5 -11 5 C-11 5.66 -11 6.32 -11 7 C-13.31 6.67 -15.62 6.34 -18 6 C-14.98494548 3.98996365 -12.42503788 3.00828459 -9 1.875 C-7.948125 1.52179688 -6.89625 1.16859375 -5.8125 0.8046875 C-3 0 -3 0 0 0 Z " fill="#5524C7" transform="translate(193,69)"/>
<path d="M0 0 C0 0.66 0 1.32 0 2 C-0.66 2 -1.32 2 -2 2 C-2 3.98 -2 5.96 -2 8 C-4.62187494 6.95125002 -5.79371361 6.35068687 -7.25 3.875 C-7.4975 3.25625 -7.745 2.6375 -8 2 C-5.09399739 0.74335022 -3.20395416 0 0 0 Z " fill="#506DE0" transform="translate(288,289)"/>
<path d="M0 0 C8.6309795 3.85421412 8.6309795 3.85421412 11 8 C10.21625 7.814375 9.4325 7.62875 8.625 7.4375 C6.02910225 6.74037734 6.02910225 6.74037734 4 8 C0 2.25 0 2.25 0 0 Z " fill="#0B44B2" transform="translate(216,136)"/>
<path d="M0 0 C0.99 0.33 1.98 0.66 3 1 C-0.625 6.75 -0.625 6.75 -4 9 C-4.99 9 -5.98 9 -7 9 C-6.67 8.01 -6.34 7.02 -6 6 C-5.34 6 -4.68 6 -4 6 C-3.67 5.01 -3.34 4.02 -3 3 C-2.01 3.33 -1.02 3.66 0 4 C0 2.68 0 1.36 0 0 Z " fill="#0A46B2" transform="translate(224,202)"/>
<path d="M0 0 C-1.12073862 0.83905565 -2.24674547 1.67107831 -3.375 2.5 C-4.31472656 3.19609375 -4.31472656 3.19609375 -5.2734375 3.90625 C-7 5 -7 5 -9 5 C-10.36161311 5.96113866 -11.69855198 6.95884159 -13 8 C-13.66 7.67 -14.32 7.34 -15 7 C-3.75168431 -1.87584216 -3.75168431 -1.87584216 0 0 Z " fill="#1E409C" transform="translate(208,382)"/>
<path d="M0 0 C1.0625 1.8125 1.0625 1.8125 2 4 C1.67 4.99 1.34 5.98 1 7 C-0.72945653 6.85764543 -2.45855654 6.71095618 -4.1875 6.5625 C-5.63189453 6.44068359 -5.63189453 6.44068359 -7.10546875 6.31640625 C-9.78649602 6.02333849 -12.3662986 5.57296246 -15 5 C-15 4.67 -15 4.34 -15 4 C-10.05 4.33 -5.1 4.66 0 5 C0 3.35 0 1.7 0 0 Z " fill="#6277DA" transform="translate(383,370)"/>
<path d="M0 0 C0.99 0.33 1.98 0.66 3 1 C2.34 1.66 1.68 2.32 1 3 C1 3.99 1 4.98 1 6 C0.2575 6.268125 -0.485 6.53625 -1.25 6.8125 C-3.86636554 7.94229421 -5.80187111 9.20893202 -8 11 C-6.63629701 8.00779732 -5.05091917 5.70973471 -2.875 3.25 C-2.33617187 2.63640625 -1.79734375 2.0228125 -1.2421875 1.390625 C-0.62730469 0.70226562 -0.62730469 0.70226562 0 0 Z " fill="#5772E2" transform="translate(315,303)"/>
<path d="M0 0 C3.94139078 1.66751148 6.7892812 4.22710649 10 7 C8.375 7.75 8.375 7.75 6 8 C2.75 6.3125 2.75 6.3125 0 4 C0 2.68 0 1.36 0 0 Z " fill="#5F7AE0" transform="translate(289,307)"/>
<path d="M0 0 C0 3.16532218 -0.4881352 4.27663837 -1.9375 7 C-3.18464997 9.36019778 -4.15026832 11.45080496 -5 14 C-5.99 14 -6.98 14 -8 14 C-6.6744419 10.37723685 -5.05653045 7.36494652 -2.875 4.1875 C-2.33617188 3.39730469 -1.79734375 2.60710937 -1.2421875 1.79296875 C-0.83226562 1.20128906 -0.42234375 0.60960938 0 0 Z " fill="#4736DD" transform="translate(130,110)"/>
<path d="M0 0 C0 0.99 0 1.98 0 3 C-1 4 -2 5 -3 6 C-3.71447643 8.10332891 -3.71447643 8.10332891 -4 10 C-3.34 10.33 -2.68 10.66 -2 11 C-5 12 -5 12 -8 11 C-6.63629701 8.00779732 -5.05091917 5.70973471 -2.875 3.25 C-2.33617188 2.63640625 -1.79734375 2.0228125 -1.2421875 1.390625 C-0.62730469 0.70226562 -0.62730469 0.70226562 0 0 Z " fill="#114B98" transform="translate(127,105)"/>
<path d="M0 0 C5.31027254 1.46032495 9.46330032 3.98320986 14 7 C12.68 7.33 11.36 7.66 10 8 C10 7.34 10 6.68 10 6 C7.03 5.505 7.03 5.505 4 5 C3.67 4.01 3.34 3.02 3 2 C2.01 1.67 1.02 1.34 0 1 C0 0.67 0 0.34 0 0 Z " fill="#576FE2" transform="translate(329,309)"/>
<path d="M0 0 C1.32 0 2.64 0 4 0 C4 1.32 4 2.64 4 4 C4.66 4.33 5.32 4.66 6 5 C4.35 5.66 2.7 6.32 1 7 C0.34 5.02 -0.32 3.04 -1 1 C-0.67 0.67 -0.34 0.34 0 0 Z " fill="#5A1CD8" transform="translate(314,200)"/>
<path d="M0 0 C0.66 0 1.32 0 2 0 C2.144375 1.051875 2.28875 2.10375 2.4375 3.1875 C2.92163439 6.82934366 2.92163439 6.82934366 3.625 9.6875 C4.0271426 12.16737935 3.67269793 13.61543643 3 16 C2.49411853 14.08487728 1.99551609 12.16783078 1.5 10.25 C1.2215625 9.18265625 0.943125 8.1153125 0.65625 7.015625 C0 4 0 4 0 0 Z " fill="#114995" transform="translate(171,347)"/>
<path d="M0 0 C3.87051275 3.07881696 7.02911382 6.00073014 10 10 C9.67 10.66 9.34 11.32 9 12 C4.33716394 8.48417174 1.27789598 5.96351455 0 0 Z " fill="#572AC4" transform="translate(314,94)"/>
<path d="M0 0 C0.33 0 0.66 0 1 0 C1 2.97 1 5.94 1 9 C1.66 9 2.32 9 3 9 C2.67 11.97 2.34 14.94 2 18 C-0.16969145 13.66061709 -0.21326104 11.51609592 -0.125 6.75 C-0.10695312 5.48671875 -0.08890625 4.2234375 -0.0703125 2.921875 C-0.04710937 1.95765625 -0.02390625 0.9934375 0 0 Z " fill="#531EDB" transform="translate(193,407)"/>
<path d="M0 0 C3.68754757 0.49831724 5.60490662 1.10067643 8 4 C5.625 4.625 5.625 4.625 3 5 C2.34 4.34 1.68 3.68 1 3 C0.34 3.66 -0.32 4.32 -1 5 C-0.67 3.35 -0.34 1.7 0 0 Z " fill="#496BFA" transform="translate(292,291)"/>
<path d="M0 0 C0.66 0.66 1.32 1.32 2 2 C0.576875 2.86625 0.576875 2.86625 -0.875 3.75 C-3.76134098 5.82816551 -4.84095741 6.75468075 -6 10 C-6.66 10 -7.32 10 -8 10 C-7.4376049 6.73810844 -6.5859495 5.08865152 -4 3 C-3.01 2.67 -2.02 2.34 -1 2 C-0.67 1.34 -0.34 0.68 0 0 Z " fill="#5827E3" transform="translate(236,195)"/>
<path d="M0 0 C0.33 0 0.66 0 1 0 C1.31563182 5.26053037 0.66590937 8.44573816 -2 13 C-3.18771723 9.57056481 -2.80226223 7.62215325 -1.5625 4.25 C-1.27503906 3.45078125 -0.98757812 2.6515625 -0.69140625 1.828125 C-0.46324219 1.22484375 -0.23507813 0.6215625 0 0 Z " fill="#124B96" transform="translate(98,155)"/>
<path d="M0 0 C2.74277578 3.19990508 4.6302836 6.00499382 6 10 C4.02 9.34 2.04 8.68 0 8 C0 5.36 0 2.72 0 0 Z " fill="#0C43B3" transform="translate(194,430)"/>
<path d="M0 0 C0.33 0 0.66 0 1 0 C1 5.94 1 11.88 1 18 C0.34 18.33 -0.32 18.66 -1 19 C-1.33 18.01 -1.66 17.02 -2 16 C-1.67 15.34 -1.34 14.68 -1 14 C-0.76970044 11.62876754 -0.58880058 9.25258057 -0.4375 6.875 C-0.35371094 5.59367188 -0.26992187 4.31234375 -0.18359375 2.9921875 C-0.09271484 1.51105469 -0.09271484 1.51105469 0 0 Z " fill="#4D23DE" transform="translate(240,163)"/>
<path d="M0 0 C0.66 0.33 1.32 0.66 2 1 C0.54634731 2.17249353 -0.91307419 3.33783816 -2.375 4.5 C-3.18710938 5.1496875 -3.99921875 5.799375 -4.8359375 6.46875 C-7 8 -7 8 -9 8 C-9 7.01 -9 6.02 -9 5 C-7.54735962 4.1361871 -6.0876837 3.28419546 -4.625 2.4375 C-3.40683594 1.72400391 -3.40683594 1.72400391 -2.1640625 0.99609375 C-1.44992188 0.66738281 -0.73578125 0.33867188 0 0 Z " fill="#263CA7" transform="translate(155,84)"/>
<path d="M0 0 C0 0.66 0 1.32 0 2 C-7.28571429 6.57142857 -7.28571429 6.57142857 -12 6 C-8.59780735 3.25207517 -4.51535412 0 0 0 Z " fill="#5423CB" transform="translate(171,77)"/>
<path d="M0 0 C2.71372659 2.00579792 3.03939963 3.17275223 3.8125 6.5625 C3.874375 7.696875 3.93625 8.83125 4 10 C3.34 10.66 2.68 11.32 2 12 C0.70756464 7.8803623 -0.26252625 4.33168317 0 0 Z " fill="#5843E5" transform="translate(184,342)"/>
<path d="M0 0 C2.375 -0.1875 2.375 -0.1875 5 0 C5.66 0.99 6.32 1.98 7 3 C6.67 4.32 6.34 5.64 6 7 C4.02 4.69 2.04 2.38 0 0 Z " fill="#5971E7" transform="translate(320,345)"/>
<path d="M0 0 C1.24546405 2.49092811 0.7767578 3.41080733 0 6 C-0.5775 6.103125 -1.155 6.20625 -1.75 6.3125 C-4.32049158 7.09792798 -5.93657284 8.30504197 -8 10 C-6.34908222 5.70761377 -3.26245434 3.1206085 0 0 Z " fill="#4A37DF" transform="translate(144,94)"/>
<path d="M0 0 C0.99 0.33 1.98 0.66 3 1 C-0.96 4.465 -0.96 4.465 -5 8 C-5.33 6.68 -5.66 5.36 -6 4 C-4.68 4 -3.36 4 -2 4 C-2 3.34 -2 2.68 -2 2 C-1.34 2 -0.68 2 0 2 C0 1.34 0 0.68 0 0 Z " fill="#5525C6" transform="translate(247,435)"/>
<path d="M0 0 C2.99324263 1.0975223 3.84610901 1.67682892 5.25 4.625 C5.4975 5.40875 5.745 6.1925 6 7 C5.34 7 4.68 7 4 7 C4 7.66 4 8.32 4 9 C3.34 9 2.68 9 2 9 C1.855625 7.88625 1.71125 6.7725 1.5625 5.625 C1.21627965 2.17857953 1.21627965 2.17857953 0 0 Z " fill="#5C71E5" transform="translate(361,347)"/>
<path d="M0 0 C0.33 0.66 0.66 1.32 1 2 C0.67 2.66 0.34 3.32 0 4 C0.99 4.33 1.98 4.66 3 5 C2.360625 5.28875 1.72125 5.5775 1.0625 5.875 C-1.15206079 6.82823451 -1.15206079 6.82823451 -2 9 C-2.66 9 -3.32 9 -4 9 C-2.94124926 5.59687262 -1.99097846 2.98646769 0 0 Z " fill="#0E499D" transform="translate(110,128)"/>
<path d="M0 0 C1.65 0 3.3 0 5 0 C5.66 2.31 6.32 4.62 7 7 C3.42895561 5.12050295 1.45255699 3.82946843 0 0 Z " fill="#0B4C9C" transform="translate(185,442)"/>
<path d="M0 0 C5.75 0.75 5.75 0.75 8 3 C6.35 3.66 4.7 4.32 3 5 C2.01 3.35 1.02 1.7 0 0 Z " fill="#6880F0" transform="translate(318,304)"/>
<path d="M0 0 C1.875 0.3125 1.875 0.3125 4 1 C4.66 1.99 5.32 2.98 6 4 C4.35 4.33 2.7 4.66 1 5 C0.67 3.35 0.34 1.7 0 0 Z " fill="#571BDD" transform="translate(308,91)"/>
<path d="M0 0 C4.455 0.99 4.455 0.99 9 2 C8.67 2.66 8.34 3.32 8 4 C2.25 3.125 2.25 3.125 0 2 C0 1.34 0 0.68 0 0 Z " fill="#5621CA" transform="translate(272,73)"/>
<path d="M0 0 C1.32 0.33 2.64 0.66 4 1 C4.33 1.66 4.66 2.32 5 3 C4.34 3 3.68 3 3 3 C3.66 4.65 4.32 6.3 5 8 C4.01 8.495 4.01 8.495 3 9 C2.01 6.03 1.02 3.06 0 0 Z " fill="#647BD4" transform="translate(312,283)"/>
<path d="M0 0 C0 3 0 3 -2.25 5.75 C-3.1575 6.4925 -4.065 7.235 -5 8 C-7.171875 7.640625 -7.171875 7.640625 -9 7 C-8.43410156 6.57847656 -7.86820313 6.15695313 -7.28515625 5.72265625 C-6.55167969 5.17480469 -5.81820312 4.62695312 -5.0625 4.0625 C-4.33160156 3.51722656 -3.60070312 2.97195312 -2.84765625 2.41015625 C-1.0865547 1.13092062 -1.0865547 1.13092062 0 0 Z " fill="#4C3DDF" transform="translate(220,210)"/>
<path d="M0 0 C0.33 1.32 0.66 2.64 1 4 C0.34 4 -0.32 4 -1 4 C-1.33 5.65 -1.66 7.3 -2 9 C-2.99 9.33 -3.98 9.66 -5 10 C-3.66511872 6.40608886 -2.03977277 3.24509304 0 0 Z " fill="#0E4A96" transform="translate(116,118)"/>
<path d="M0 0 C1.32 0.33 2.64 0.66 4 1 C3.67 2.65 3.34 4.3 3 6 C2.01 6 1.02 6 0 6 C0 4.02 0 2.04 0 0 Z " fill="#5A1CE0" transform="translate(322,106)"/>
<path d="M0 0 C2.88437779 1.29299694 4.87219421 2.65941363 7 5 C6.67 5.66 6.34 6.32 6 7 C5.38125 6.525625 4.7625 6.05125 4.125 5.5625 C2.09294454 3.97582559 2.09294454 3.97582559 0 3 C0 2.01 0 1.02 0 0 Z " fill="#521EC6" transform="translate(247,381)"/>
<path d="M0 0 C0.66 0.33 1.32 0.66 2 1 C1.34 2.65 0.68 4.3 0 6 C-1.32 5.67 -2.64 5.34 -4 5 C-2.68 3.35 -1.36 1.7 0 0 Z " fill="#4E6AE1" transform="translate(369,368)"/>
<path d="M0 0 C2.97 0.495 2.97 0.495 6 1 C5.67 2.32 5.34 3.64 5 5 C3.0625 4.1875 3.0625 4.1875 1 3 C0.67 2.01 0.34 1.02 0 0 Z " fill="#5876ED" transform="translate(293,287)"/>
<path d="M0 0 C0.33 0 0.66 0 1 0 C0.25 7.625 0.25 7.625 -2 11 C-2.28571429 3.57142857 -2.28571429 3.57142857 0 0 Z " fill="#1041AF" transform="translate(237,179)"/>
<path d="M0 0 C2.25 -0.25 2.25 -0.25 5 0 C7.3125 2 7.3125 2 9 4 C5.30581799 4 3.22163822 2.71820705 0 1 C0 0.67 0 0.34 0 0 Z " fill="#4735DE" transform="translate(215,135)"/>
</svg>
